# ProBuilder 5.0.7
# https://unity3d.com/unity/features/worldbuilding/probuilder
# 27.11.2023 18:36:09

mtllib ./Main.mtl
o Main

g Main
v -1.952157 2.146355 -0.795
v -1.865 2.146355 -0.795
v -1.865 2.234 -0.795
v -1.952157 2.234 -0.795
v -1.952157 2.234 -1.295
v -1.865 2.234 -1.295
v -1.865 2.146355 -1.295
v -1.952157 2.146355 -1.295
v -1.952157 0.234 -0.795
v -1.865 0.234 -0.795
v -1.865 0.3224136 -0.795
v -1.952157 0.3224136 -0.795
v -1.952157 0.3224136 -1.295
v -1.865 0.3224136 -1.295
v -1.865 0.234 -1.295
v -1.952157 0.234 -1.295
v -3.365 2.146355 -0.795
v -3.266655 2.146355 -0.795
v -3.266655 2.234 -0.795
v -3.365 2.234 -0.795
v -3.365 2.146355 -1.295
v -3.365 2.234 -1.295
v -3.266655 2.234 -1.295
v -3.266655 2.146355 -1.295
v -3.365 0.234 -0.795
v -3.266655 0.234 -0.795
v -3.266655 0.3224136 -0.795
v -3.365 0.3224136 -0.795
v -3.365 0.234 -1.295
v -3.365 0.3224136 -1.295
v -3.266655 0.3224136 -1.295
v -3.266655 0.234 -1.295
v -2.609406 2.146355 -0.795
v -2.030782 2.146355 -0.795
v -3.188031 2.146355 -0.795
v -2.030782 0.3224136 -0.795
v -2.609406 0.3224136 -0.795
v -3.188031 0.3224136 -0.795
v -1.952157 1.234384 -0.795
v -1.952157 0.4128804 -0.795
v -1.952157 2.064653 -0.795
v -3.266655 0.4055345 -0.795
v -3.266655 1.234384 -0.795
v -3.266655 2.067493 -0.795
v -3.266655 0.4055345 -0.9845906
v -3.188031 0.3224136 -0.9845906
v -2.609406 0.3224136 -0.9845906
v -2.030782 0.3224136 -0.9845906
v -1.952157 0.4128804 -0.9845906
v -1.952157 1.234384 -0.9845906
v -1.952157 2.064653 -0.9845906
v -2.030782 2.146355 -0.9845906
v -2.609406 2.146355 -0.9845906
v -3.188031 2.146355 -0.9845906
v -3.266655 2.067493 -0.9845906
v -3.266655 1.234384 -0.9845906
v -1.865 2.234 -0.9830447
v -1.865 2.146355 -0.9830447
v -3.365 2.146355 -0.9830447
v -3.365 2.234 -0.9830447
v -1.865 0.3224136 -0.9830447
v -1.865 0.234 -0.9830447
v -3.365 0.234 -0.9830447
v -3.365 0.3224136 -0.9830447
v -1.952157 2.234 -0.9830447
v -1.952157 0.234 -0.9830447
v -3.266655 2.234 -0.9830447
v -3.266655 0.234 -0.9830447
v -1.865 2.234 -1.110533
v -1.865 2.146355 -1.110533
v -3.365 2.146355 -1.110533
v -3.365 2.234 -1.110533
v -1.865 0.3224136 -1.110533
v -1.865 0.234 -1.110533
v -3.365 0.234 -1.110533
v -3.365 0.3224136 -1.110533
v -1.952157 2.234 -1.110533
v -1.952157 0.234 -1.110533
v -3.266655 2.234 -1.110533
v -3.266655 0.234 -1.110533
v -3.266655 1.234384 -1.295
v -3.266655 2.063234 -1.295
v -3.266655 0.4094477 -1.295
v -3.188031 2.146355 -1.295
v -2.609406 2.146355 -1.295
v -2.030782 2.146355 -1.295
v -1.952157 2.067296 -1.295
v -1.952157 1.234384 -1.295
v -1.952157 0.4131156 -1.295
v -2.609406 0.3224136 -1.295
v -3.188031 0.3224136 -1.295
v -2.030782 0.3224136 -1.295
v -3.266655 2.063234 -1.107651
v -3.266655 1.234384 -1.107651
v -3.266655 0.4094477 -1.107651
v -3.188031 0.3224136 -1.107651
v -2.609406 0.3224136 -1.107651
v -2.030782 0.3224136 -1.107651
v -1.952157 0.4131156 -1.107651
v -1.952157 1.234384 -1.107651
v -1.952157 2.067296 -1.107651
v -2.030782 2.146355 -1.107651
v -2.609406 2.146355 -1.107651
v -3.188031 2.146355 -1.107651

vt 0.6628428 0.9123548
vt 0.75 0.9123548
vt 0.75 1
vt 0.6628428 0.9999999
vt -0.6628428 0.9999999
vt -0.75 1
vt -0.75 0.9123548
vt -0.6628428 0.9123548
vt 0.6628428 -1
vt 0.75 -1
vt 0.75 -0.9115864
vt 0.6628428 -0.9115864
vt -0.6628428 -0.9115864
vt -0.75 -0.9115864
vt -0.75 -1
vt -0.6628428 -1
vt -0.6516556 0.9123548
vt -0.6516556 0.9999999
vt 0.6516556 0.9999999
vt 0.6516556 0.9123548
vt -0.6516556 -1
vt -0.6516556 -0.9115864
vt 0.6516556 -0.9115864
vt 0.6516556 -1
vt 0.005593598 0.9123548
vt 0.5842183 0.9123548
vt -0.5730309 0.9123548
vt 0.5842183 -0.9115864
vt 0.005593598 -0.9115864
vt -0.5730309 -0.9115864
vt 0.6628428 0.0003842115
vt 0.6628428 -0.8211196
vt 0.6628428 0.8306535
vt -0.6516556 -0.8284655
vt -0.6516556 0.0003842115
vt -0.6516556 0.8334929
vt -0.25 0.9123548
vt -0.25 1
vt -0.06195521 0.9999999
vt -0.06195521 0.9123548
vt 0.25 0.9123548
vt 0.06195521 0.9123548
vt 0.06195521 0.9999999
vt 0.25 1
vt -0.25 -0.9115864
vt -0.06195521 -0.9115864
vt -0.06195521 -1
vt -0.25 -1
vt 0.25 -1
vt 0.06195521 -1
vt 0.06195521 -0.9115864
vt 0.25 -0.9115864
vt -0.75 0.06195514
vt -0.75 0.2499999
vt -0.6628428 0.2499999
vt -0.6628428 0.06195514
vt 0.6628428 0.06195521
vt 0.6628428 0.25
vt 0.75 0.25
vt 0.75 0.06195521
vt 0.6516556 0.2499999
vt 0.6516554 0.06195514
vt 0.75 0.2499999
vt -0.6516554 0.06195521
vt -0.6516556 0.25
vt -0.75 0.25
vt 0.06553328 0.9999999
vt 0.06553328 0.9123548
vt -0.06553328 0.9123548
vt -0.06553328 0.9999999
vt 0.06553328 -0.9115864
vt 0.06553328 -1
vt -0.06553328 -1
vt -0.06553328 -0.9115864
vt -0.6628428 -0.2500001
vt -0.75 -0.2500001
vt -0.75 -0.06553335
vt -0.6628428 -0.06553335
vt 0.6628428 -0.25
vt 0.6628428 -0.06553328
vt 0.75 -0.06553328
vt 0.75 -0.25
vt 0.6516556 -0.2500001
vt 0.6516554 -0.06553335
vt -0.6516556 -0.25
vt -0.6516554 -0.06553328
vt 0.005593598 0.25
vt 0.5842183 0.25
vt 0.005593538 0.06040931
vt 0.5842183 0.06040931
vt 0.25 0.2522896
vt 0.25 0.1389013
vt 0.06040931 0.2522896
vt 0.06040931 0.1389013
vt -0.2500004 0.0003842115
vt -0.2500004 0.8334929
vt -0.06040972 0.0003842115
vt -0.06040972 0.8334929
vt -0.5730309 0.25
vt -0.5730309 0.06040931
vt -0.2500004 0.130161
vt -0.2500004 0.2415209
vt -0.06040972 0.130161
vt -0.06040967 0.2415209
vt 0.25 0.8306535
vt 0.25 0.0003842115
vt 0.06040931 0.8306535
vt 0.06040931 0.0003842115
vt 0.25 -0.8211196
vt 0.06040931 -0.8211196
vt -0.5842183 0.25
vt -0.005593598 0.25
vt -0.5842183 0.06040931
vt -0.005593538 0.06040931
vt 0.25 -0.1849548
vt 0.25 -0.3048132
vt 0.06040931 -0.1849548
vt 0.06040931 -0.3048132
vt -0.2500004 -0.8284655
vt -0.06040972 -0.8284655
vt 0.5730309 0.25
vt 0.5730309 0.06040931
vt -0.25 -0.2684739
vt -0.25 -0.1540583
vt -0.06040931 -0.2684739
vt -0.06040931 -0.1540584
vt 0.6516556 0.0003842115
vt 0.6516554 0.8292342
vt 0.6516554 -0.8245523
vt 0.5730309 0.9123548
vt -0.005593598 0.9123548
vt -0.5842181 0.9123548
vt -0.6628428 0.8332957
vt -0.6628428 0.0003842115
vt -0.6628428 -0.8208843
vt -0.005593598 -0.9115864
vt 0.5730309 -0.9115864
vt -0.5842181 -0.9115864
vt 0.25 0.8292341
vt 0.06265068 0.8292341
vt 0.06265068 0.0003841178
vt 0.2500004 -0.8245522
vt 0.0626511 -0.8245522
vt 0.5730309 -0.25
vt -0.005593598 -0.25
vt 0.5730309 -0.06265068
vt -0.005593538 -0.06265068
vt 0.25 -0.1750213
vt 0.25 -0.2923104
vt 0.06265068 -0.1750213
vt 0.06265068 -0.2923104
vt -0.25 -0.8208843
vt -0.06265068 -0.8208843
vt -0.06265068 0.0003842115
vt -0.5842181 -0.25
vt -0.5842181 -0.06265068
vt -0.25 -0.306148
vt -0.25 -0.1861118
vt -0.06265068 -0.306148
vt -0.06265068 -0.1861118
vt -0.06265068 0.8332957
vt 0.5842181 -0.25
vt 0.005593598 -0.25
vt 0.5842181 -0.06265068
vt 0.005593538 -0.06265068
vt -0.25 0.1234432
vt -0.25 0.2349429
vt -0.06265068 0.1234432
vt -0.06265068 0.2349429
vt -0.5730309 -0.25
vt -0.5730309 -0.06265068
vt 0.25 0.2690306
vt 0.25 0.1546154
vt 0.06265068 0.2690306
vt 0.06265068 0.1546154

vn 0 0 1
vn 0 0 -1
vn 1 0 0
vn -1 0 0
vn 0 1 -6.339409E-07
vn 0 -1 0
vn -0.7205441 -0.6934091 0
vn 0.7081716 -0.7060403 4.452784E-07
vn -0.7547802 0.6559777 0
vn 0.7264829 0.6871846 0
vn 0.7420474 0.6703475 0
vn -0.7556225 0.6550074 0
vn -0.7090526 -0.7051556 0
vn 0.7264819 -0.6871856 0

usemtl Portal_Background_Material
f 51/33/1 52/26/1 53/25/1
f 53/25/1 56/35/1 51/33/1
f 56/35/1 53/25/1 55/36/1
f 55/36/1 53/25/1 54/27/1
f 47/29/1 51/33/1 56/35/1
f 50/31/1 51/33/1 47/29/1
f 49/32/1 50/31/1 47/29/1
f 49/32/1 47/29/1 48/28/1
f 45/34/1 47/29/1 56/35/1
f 45/34/1 46/30/1 47/29/1
f 94/127/2 93/128/2 97/136/2
f 94/127/2 97/136/2 95/129/2
f 95/129/2 97/136/2 96/137/2
f 97/136/2 93/128/2 100/134/2
f 99/135/2 97/136/2 100/134/2
f 99/135/2 98/138/2 97/136/2
f 103/131/2 100/134/2 93/128/2
f 100/134/2 103/131/2 101/133/2
f 101/133/2 103/131/2 102/132/2
f 93/128/2 104/130/2 103/131/2
f 52/90/6 34/88/6 33/87/6
f 33/87/6 53/89/6 52/90/6
f 51/94/7 41/92/7 34/91/7
f 34/91/7 52/93/7 51/94/7
f 55/98/3 44/96/3 43/95/3
f 43/95/3 56/97/3 55/98/3
f 53/89/6 33/87/6 35/99/6
f 35/99/6 54/100/6 53/89/6
f 54/104/8 35/102/8 44/101/8
f 44/101/8 55/103/8 54/104/8
f 50/108/4 39/106/4 41/105/4
f 41/105/4 51/107/4 50/108/4
f 49/110/4 40/109/4 39/106/4
f 39/106/4 50/108/4 49/110/4
f 47/114/5 37/112/5 36/111/5
f 36/111/5 48/113/5 47/114/5
f 48/118/9 36/116/9 40/115/9
f 40/115/9 49/117/9 48/118/9
f 56/97/3 43/95/3 42/119/3
f 42/119/3 45/120/3 56/97/3
f 46/122/5 38/121/5 37/112/5
f 37/112/5 47/114/5 46/122/5
f 45/126/10 42/124/10 38/123/10
f 38/123/10 46/125/10 45/126/10
f 94/141/3 81/106/3 82/139/3
f 82/139/3 93/140/3 94/141/3
f 95/143/3 83/142/3 81/106/3
f 81/106/3 94/141/3 95/143/3
f 97/147/5 90/145/5 91/144/5
f 91/144/5 96/146/5 97/147/5
f 96/151/11 91/149/11 83/148/11
f 83/148/11 95/150/11 96/151/11
f 100/154/4 88/95/4 89/152/4
f 89/152/4 99/153/4 100/154/4
f 98/156/5 92/155/5 90/145/5
f 90/145/5 97/147/5 98/156/5
f 99/160/12 89/158/12 92/157/12
f 92/157/12 98/159/12 99/160/12
f 101/161/4 87/96/4 88/95/4
f 88/95/4 100/154/4 101/161/4
f 103/165/6 85/163/6 86/162/6
f 86/162/6 102/164/6 103/165/6
f 102/169/13 86/167/13 87/166/13
f 87/166/13 101/168/13 102/169/13
f 104/171/6 84/170/6 85/163/6
f 85/163/6 103/165/6 104/171/6
f 93/175/14 82/173/14 84/172/14
f 84/172/14 104/174/14 93/175/14

usemtl Portal_Main_Material
f 1/1/1 41/33/1 2/2/1
f 39/31/1 2/2/1 41/33/1
f 39/31/1 11/11/1 2/2/1
f 39/31/1 40/32/1 11/11/1
f 40/32/1 12/12/1 11/11/1
f 87/133/2 8/8/2 7/7/2
f 88/134/2 87/133/2 7/7/2
f 88/134/2 7/7/2 14/14/2
f 14/14/2 89/135/2 88/134/2
f 14/14/2 13/13/2 89/135/2
f 33/25/1 4/4/1 19/18/1
f 33/25/1 34/26/1 4/4/1
f 34/26/1 1/1/1 4/4/1
f 19/18/1 35/27/1 33/25/1
f 19/18/1 18/17/1 35/27/1
f 85/131/2 23/19/2 5/5/2
f 85/131/2 84/130/2 23/19/2
f 84/130/2 24/20/2 23/19/2
f 5/5/2 86/132/2 85/131/2
f 5/5/2 8/8/2 86/132/2
f 9/9/1 12/12/1 36/28/1
f 36/28/1 37/29/1 9/9/1
f 9/9/1 37/29/1 26/21/1
f 26/21/1 37/29/1 38/30/1
f 27/22/1 26/21/1 38/30/1
f 44/36/1 18/17/1 17/7/1
f 43/35/1 44/36/1 17/7/1
f 43/35/1 17/7/1 28/14/1
f 28/14/1 42/34/1 43/35/1
f 28/14/1 27/22/1 42/34/1
f 32/24/2 31/23/2 91/137/2
f 91/137/2 90/136/2 32/24/2
f 32/24/2 90/136/2 16/16/2
f 16/16/2 90/136/2 92/138/2
f 13/13/2 16/16/2 92/138/2
f 24/20/2 82/128/2 21/2/2
f 81/127/2 21/2/2 82/128/2
f 81/127/2 30/11/2 21/2/2
f 81/127/2 83/129/2 30/11/2
f 83/129/2 31/23/2 30/11/2
f 42/34/1 27/22/1 38/30/1
f 36/28/1 12/12/1 40/32/1
f 41/33/1 1/1/1 34/26/1
f 35/27/1 18/17/1 44/36/1
f 89/135/2 13/13/2 92/138/2
f 86/132/2 8/8/2 87/133/2
f 82/128/2 24/20/2 84/130/2
f 91/137/2 31/23/2 83/129/2
f 3/3/1 4/4/1 1/1/1
f 1/1/1 2/2/1 3/3/1
f 6/6/2 7/7/2 8/8/2
f 8/8/2 5/5/2 6/6/2
f 11/11/1 12/12/1 9/9/1
f 9/9/1 10/10/1 11/11/1
f 14/14/2 15/15/2 16/16/2
f 16/16/2 13/13/2 14/14/2
f 19/18/1 20/6/1 17/7/1
f 17/7/1 18/17/1 19/18/1
f 23/19/2 24/20/2 21/2/2
f 21/2/2 22/3/2 23/19/2
f 27/22/1 28/14/1 25/15/1
f 25/15/1 26/21/1 27/22/1
f 31/23/2 32/24/2 29/10/2
f 29/10/2 30/11/2 31/23/2
f 57/39/3 3/38/3 2/37/3
f 2/37/3 58/40/3 57/39/3
f 60/43/4 59/42/4 17/41/4
f 17/41/4 20/44/4 60/43/4
f 61/46/3 11/45/3 10/48/3
f 10/48/3 62/47/3 61/46/3
f 58/40/3 2/37/3 11/45/3
f 11/45/3 61/46/3 58/40/3
f 64/51/4 63/50/4 25/49/4
f 25/49/4 28/52/4 64/51/4
f 59/42/4 64/51/4 28/52/4
f 28/52/4 17/41/4 59/42/4
f 3/54/5 57/53/5 65/56/5
f 65/56/5 4/55/5 3/54/5
f 10/59/6 9/58/6 66/57/6
f 66/57/6 62/60/6 10/59/6
f 4/55/5 65/56/5 67/62/5
f 67/62/5 19/61/5 4/55/5
f 19/61/5 67/62/5 60/60/5
f 60/60/5 20/63/5 19/61/5
f 9/58/6 26/65/6 68/64/6
f 68/64/6 66/57/6 9/58/6
f 26/65/6 25/66/6 63/53/6
f 63/53/6 68/64/6 26/65/6
f 70/68/3 7/41/3 6/44/3
f 6/44/3 69/67/3 70/68/3
f 21/37/4 71/69/4 72/70/4
f 72/70/4 22/38/4 21/37/4
f 14/52/3 73/71/3 74/72/3
f 74/72/3 15/49/3 14/52/3
f 7/41/3 70/68/3 73/71/3
f 73/71/3 14/52/3 7/41/3
f 30/45/4 29/48/4 75/73/4
f 75/73/4 76/74/4 30/45/4
f 21/37/4 30/45/4 76/74/4
f 76/74/4 71/69/4 21/37/4
f 69/77/5 6/76/5 5/75/5
f 5/75/5 77/78/5 69/77/5
f 74/81/6 78/80/6 16/79/6
f 16/79/6 15/82/6 74/81/6
f 5/75/5 23/83/5 79/84/5
f 79/84/5 77/78/5 5/75/5
f 23/83/5 22/82/5 72/81/5
f 72/81/5 79/84/5 23/83/5
f 16/79/6 78/80/6 80/86/6
f 80/86/6 32/85/6 16/79/6
f 29/76/6 32/85/6 80/86/6
f 80/86/6 75/77/6 29/76/6

usemtl Portal_Main_2
f 57/39/3 58/40/3 70/68/3 69/67/3
f 72/70/4 71/69/4 59/42/4 60/43/4
f 74/72/3 73/71/3 61/46/3 62/47/3
f 73/71/3 70/68/3 58/40/3 61/46/3
f 64/51/4 76/74/4 75/73/4 63/50/4
f 59/42/4 71/69/4 76/74/4 64/51/4
f 65/56/5 57/53/5 69/77/5 77/78/5
f 74/81/6 62/60/6 66/57/6 78/80/6
f 65/56/5 77/78/5 79/84/5 67/62/5
f 67/62/5 79/84/5 72/81/5 60/60/5
f 80/86/6 78/80/6 66/57/6 68/64/6
f 63/53/6 75/77/6 80/86/6 68/64/6

